<?xml version="1.0" encoding="utf-8"?>
<!-- Generator: Adobe Illustrator 23.0.5, SVG Export Plug-In . SVG Version: 6.00 Build 0)  -->
<svg version="1.1" id="Layer_1" xmlns="http://www.w3.org/2000/svg" xmlns:xlink="http://www.w3.org/1999/xlink" x="0px" y="0px"
	 viewBox="0 0 560 288" style="enable-background:new 0 0 560 288;" xml:space="preserve">
<style type="text/css">
	.st0{fill:#282828;}
</style>
<path class="st0" d="M336.3,268.4H161.6c-10.1,0-18.2-8.1-18.2-18.2V61.6c0-11.3,9.1-20.4,20.4-20.4l96.4-0.3
	c6.2,0,11.7-4.1,13.5-10l3.2-10.3c1.9-5.4,6.9-9,12.6-9h102.3c8.4,0,15.2,6.8,15.2,15.2V150c0,11-4.7,21.4-12.9,28.6l-29.1,25.7
	c-7.8,6.9-12.3,16.9-12.2,27.3l0.1,20.1C352.9,260.9,345.5,268.4,336.3,268.4z"/>
</svg>
